<?xml version="1.0" encoding="utf-8"?>
<!-- Generator: Adobe Illustrator 25.4.1, SVG Export Plug-In . SVG Version: 6.00 Build 0)  -->
<svg version="1.1" id="Ebene_1" xmlns="http://www.w3.org/2000/svg" xmlns:xlink="http://www.w3.org/1999/xlink" x="0px" y="0px"
	 viewBox="0 0 32 32" style="enable-background:new 0 0 32 32;" xml:space="preserve">
<style type="text/css">
	.st0{fill:#FFFFFF;}
</style>
<path class="st0" d="M16,0C7.2,0,0,7.2,0,16s7.2,16,16,16s16-7.2,16-16S24.8,0,16,0z M21,26.4c-0.3-2.8-2.8-4.8-5.6-4.5
	c-2.4,0.3-4.2,2.1-4.5,4.5c-1.3-2.8,0-6,2.8-7.3c2.8-1.3,6,0,7.3,2.8C21.7,23.3,21.7,25,21,26.4z M23.8,24.1
	c-0.2-4.3-3.8-7.7-8.1-7.5c-4.1,0.1-7.4,3.4-7.5,7.5c-0.3-0.9-0.4-1.8-0.4-2.7c0.2-4.6,4-8.1,8.6-8c4.3,0.2,7.8,3.6,8,8
	C24.3,22.3,24.1,23.3,23.8,24.1L23.8,24.1z M26.5,21.8c0-0.1,0-0.3,0-0.4c-0.2-5.8-5.1-10.4-10.9-10.2c-5.6,0.2-10.1,4.7-10.2,10.2
	c0,0.1,0,0.3,0,0.4c-0.3-1-0.5-2.1-0.5-3.2c0-6.1,4.9-11,11-11s11,4.9,11,11C27,19.7,26.9,20.8,26.5,21.8L26.5,21.8z M16,5.3
	c-7.4,0-13.3,6-13.3,13.3c0,0.2,0,0.4,0,0.5c-0.3-1-0.4-2.1-0.4-3.2C2.3,8.4,8.4,2.3,16,2.3c7.6,0,13.7,6.1,13.7,13.7
	c0,1.1-0.1,2.2-0.4,3.2c0-0.2,0-0.4,0-0.5C29.3,11.3,23.4,5.3,16,5.3z"/>
</svg>
