<?xml version="1.0" encoding="utf-8"?>
<svg id="Ebene_1" data-name="Ebene 1" viewBox="0 0 32 32" xmlns="http://www.w3.org/2000/svg">
  <defs>
    <style>
      .cls-1 {
        fill: #403d54;
      }
    </style>
  </defs>
  <path class="cls-1" d="M21.23,5.91a16,16,0,1,0,16,16A16,16,0,0,0,21.23,5.91Zm5,26.43a5.06,5.06,0,0,0-10.06,0,5.52,5.52,0,1,1,10.06,0Zm2.79-2.29a7.82,7.82,0,0,0-15.63,0A8.18,8.18,0,0,1,13,27.33a8.28,8.28,0,0,1,16.55,0A8.44,8.44,0,0,1,29.05,30.05Zm2.75-2.29c0-.14,0-.28,0-.43a10.58,10.58,0,0,0-21.15,0c0,.15,0,.29,0,.43a10.85,10.85,0,0,1-.47-3.19,11,11,0,0,1,22.07,0A11.19,11.19,0,0,1,31.8,27.76ZM21.23,11.24A13.33,13.33,0,0,0,7.9,24.57c0,.18,0,.36,0,.54a13.54,13.54,0,0,1-.38-3.2,13.7,13.7,0,0,1,27.4,0,13.54,13.54,0,0,1-.38,3.2c0-.18,0-.36,0-.54A13.33,13.33,0,0,0,21.23,11.24Z" transform="translate(-5.23 -5.91)"/>
</svg>