<svg id="Ebene_1" data-name="Ebene 1" xmlns="http://www.w3.org/2000/svg" viewBox="0 0 16 16">
  <defs>
    <style>
      .cls-1 {
        fill: #403d54;
      }
    </style>
  </defs>
  <path class="cls-1" d="M14.33,5.79a8,8,0,0,0,0,16h0a8,8,0,0,0,0-16Zm2.11,12.78a2.3,2.3,0,0,0-4.21,0,2.3,2.3,0,1,1,4.21,0Zm1.93-1.83a4.14,4.14,0,0,0-8.07,0,4.71,4.71,0,0,1-.1-.92,4.14,4.14,0,1,1,8.27,0A4.71,4.71,0,0,1,18.37,16.74Zm-4-6.9a6,6,0,0,0-5.95,5.51,6.17,6.17,0,1,1,11.91,0A6,6,0,0,0,14.33,9.84Z" transform="translate(-6.33 -5.79)"/>
</svg>
